<svg xmlns="http://www.w3.org/2000/svg" width="32" height="32" viewBox="0 0 32 32">
  <defs>
    <linearGradient id="bg" x1="0" y1="0" x2="1" y2="1">
      <stop offset="0%" stop-color="#3b82f6"/>
      <stop offset="100%" stop-color="#1d4ed8"/>
    </linearGradient>
  </defs>
  <rect width="32" height="32" rx="6" fill="url(#bg)"/>
  <path d="M7 20h2v1a1 1 0 001 1h1a2 2 0 004 0h2a2 2 0 004 0h1a1 1 0 001-1v-1h1a1 1 0 001-1v-4a1 1 0 00-.3-.7l-2-2A1 1 0 0021 12h-3v-2a1 1 0 00-1-1H8a1 1 0 00-1 1v9a1 1 0 001 1zm5 1.5a1 1 0 11-2 0 1 1 0 012 0zm6 0a1 1 0 11-2 0 1 1 0 012 0zM19 14h1.6l1.4 1.4V18h-3v-4z" fill="white"/>
</svg>
